<svg width="553" height="215" viewBox="0 0 553 215" fill="none" xmlns="http://www.w3.org/2000/svg">
<ellipse cx="548.7" cy="3.53822" rx="3.53771" ry="4.12556" transform="rotate(90 548.7 3.53822)" fill="#29AAF3"/>
<ellipse cx="548.7" cy="55.4245" rx="3.53771" ry="4.12556" transform="rotate(90 548.7 55.4245)" fill="#29AAF3"/>
<ellipse cx="548.7" cy="107.311" rx="3.53771" ry="4.12556" transform="rotate(90 548.7 107.311)" fill="#29AAF3"/>
<ellipse cx="548.7" cy="159.197" rx="3.53771" ry="4.12556" transform="rotate(90 548.7 159.197)" fill="#29AAF3"/>
<ellipse cx="548.7" cy="211.084" rx="3.53771" ry="4.12556" transform="rotate(90 548.7 211.084)" fill="#29AAF3"/>
<ellipse cx="488.192" cy="3.53773" rx="3.53771" ry="4.12556" transform="rotate(90 488.192 3.53773)" fill="#29AAF3"/>
<ellipse cx="488.192" cy="55.4245" rx="3.53771" ry="4.12556" transform="rotate(90 488.192 55.4245)" fill="#29AAF3"/>
<ellipse cx="488.192" cy="107.311" rx="3.53771" ry="4.12556" transform="rotate(90 488.192 107.311)" fill="#29AAF3"/>
<ellipse cx="488.192" cy="159.197" rx="3.53771" ry="4.12556" transform="rotate(90 488.192 159.197)" fill="#29AAF3"/>
<ellipse cx="488.192" cy="211.084" rx="3.53771" ry="4.12556" transform="rotate(90 488.192 211.084)" fill="#29AAF3"/>
<ellipse cx="427.683" cy="3.53773" rx="3.53771" ry="4.12556" transform="rotate(90 427.683 3.53773)" fill="#29AAF3"/>
<ellipse cx="427.683" cy="55.4245" rx="3.53771" ry="4.12556" transform="rotate(90 427.683 55.4245)" fill="#29AAF3"/>
<ellipse cx="427.683" cy="107.311" rx="3.53771" ry="4.12556" transform="rotate(90 427.683 107.311)" fill="#29AAF3"/>
<ellipse cx="427.683" cy="159.197" rx="3.53771" ry="4.12556" transform="rotate(90 427.683 159.197)" fill="#29AAF3"/>
<ellipse cx="427.683" cy="211.084" rx="3.53771" ry="4.12556" transform="rotate(90 427.683 211.084)" fill="#29AAF3"/>
<ellipse cx="367.175" cy="3.53773" rx="3.53771" ry="4.12556" transform="rotate(90 367.175 3.53773)" fill="#29AAF3"/>
<ellipse cx="367.175" cy="55.4245" rx="3.53771" ry="4.12556" transform="rotate(90 367.175 55.4245)" fill="#29AAF3"/>
<ellipse cx="367.175" cy="107.311" rx="3.53771" ry="4.12556" transform="rotate(90 367.175 107.311)" fill="#29AAF3"/>
<ellipse cx="367.175" cy="159.197" rx="3.53771" ry="4.12556" transform="rotate(90 367.175 159.197)" fill="#29AAF3"/>
<ellipse cx="367.175" cy="211.084" rx="3.53771" ry="4.12556" transform="rotate(90 367.175 211.084)" fill="#29AAF3"/>
<ellipse cx="306.667" cy="3.53773" rx="3.53771" ry="4.12556" transform="rotate(90 306.667 3.53773)" fill="#29AAF3"/>
<ellipse cx="306.667" cy="55.4245" rx="3.53771" ry="4.12556" transform="rotate(90 306.667 55.4245)" fill="#29AAF3"/>
<ellipse cx="306.667" cy="107.311" rx="3.53771" ry="4.12556" transform="rotate(90 306.667 107.311)" fill="#29AAF3"/>
<ellipse cx="306.667" cy="159.197" rx="3.53771" ry="4.12556" transform="rotate(90 306.667 159.197)" fill="#29AAF3"/>
<ellipse cx="306.667" cy="211.084" rx="3.53771" ry="4.12556" transform="rotate(90 306.667 211.084)" fill="#29AAF3"/>
<ellipse cx="246.159" cy="3.53773" rx="3.53771" ry="4.12556" transform="rotate(90 246.159 3.53773)" fill="#29AAF3"/>
<ellipse cx="246.159" cy="55.4245" rx="3.53771" ry="4.12556" transform="rotate(90 246.159 55.4245)" fill="#29AAF3"/>
<ellipse cx="246.159" cy="107.311" rx="3.53771" ry="4.12556" transform="rotate(90 246.159 107.311)" fill="#29AAF3"/>
<ellipse cx="246.159" cy="159.197" rx="3.53771" ry="4.12556" transform="rotate(90 246.159 159.197)" fill="#29AAF3"/>
<ellipse cx="246.159" cy="211.084" rx="3.53771" ry="4.12556" transform="rotate(90 246.159 211.084)" fill="#29AAF3"/>
<ellipse cx="185.65" cy="3.53773" rx="3.53771" ry="4.12556" transform="rotate(90 185.65 3.53773)" fill="#29AAF3"/>
<ellipse cx="185.65" cy="55.4245" rx="3.53771" ry="4.12556" transform="rotate(90 185.65 55.4245)" fill="#29AAF3"/>
<ellipse cx="185.65" cy="107.311" rx="3.53771" ry="4.12556" transform="rotate(90 185.65 107.311)" fill="#29AAF3"/>
<ellipse cx="185.65" cy="159.197" rx="3.53771" ry="4.12556" transform="rotate(90 185.65 159.197)" fill="#29AAF3"/>
<ellipse cx="185.65" cy="211.084" rx="3.53771" ry="4.12556" transform="rotate(90 185.65 211.084)" fill="#29AAF3"/>
<ellipse cx="125.142" cy="3.53773" rx="3.53771" ry="4.12556" transform="rotate(90 125.142 3.53773)" fill="#29AAF3"/>
<ellipse cx="125.142" cy="55.4245" rx="3.53771" ry="4.12556" transform="rotate(90 125.142 55.4245)" fill="#29AAF3"/>
<ellipse cx="125.142" cy="107.311" rx="3.53771" ry="4.12556" transform="rotate(90 125.142 107.311)" fill="#29AAF3"/>
<ellipse cx="125.142" cy="159.197" rx="3.53771" ry="4.12556" transform="rotate(90 125.142 159.197)" fill="#29AAF3"/>
<ellipse cx="125.142" cy="211.084" rx="3.53771" ry="4.12556" transform="rotate(90 125.142 211.084)" fill="#29AAF3"/>
<ellipse cx="64.6337" cy="3.53773" rx="3.53771" ry="4.12556" transform="rotate(90 64.6337 3.53773)" fill="#29AAF3"/>
<ellipse cx="64.6337" cy="55.4245" rx="3.53771" ry="4.12556" transform="rotate(90 64.6337 55.4245)" fill="#29AAF3"/>
<ellipse cx="64.6337" cy="107.311" rx="3.53771" ry="4.12556" transform="rotate(90 64.6337 107.311)" fill="#29AAF3"/>
<ellipse cx="64.6337" cy="159.197" rx="3.53771" ry="4.12556" transform="rotate(90 64.6337 159.197)" fill="#29AAF3"/>
<ellipse cx="64.6337" cy="211.084" rx="3.53771" ry="4.12556" transform="rotate(90 64.6337 211.084)" fill="#29AAF3"/>
<ellipse cx="4.12566" cy="3.53773" rx="3.53771" ry="4.12556" transform="rotate(90 4.12566 3.53773)" fill="#29AAF3"/>
<ellipse cx="4.12566" cy="55.4245" rx="3.53771" ry="4.12556" transform="rotate(90 4.12566 55.4245)" fill="#29AAF3"/>
<ellipse cx="4.12566" cy="107.311" rx="3.53771" ry="4.12556" transform="rotate(90 4.12566 107.311)" fill="#29AAF3"/>
<ellipse cx="4.12566" cy="159.197" rx="3.53771" ry="4.12556" transform="rotate(90 4.12566 159.197)" fill="#29AAF3"/>
<ellipse cx="4.12566" cy="211.084" rx="3.53771" ry="4.12556" transform="rotate(90 4.12566 211.084)" fill="#29AAF3"/>
</svg>
