<svg width="25" height="18" viewBox="0 0 25 18" fill="none" xmlns="http://www.w3.org/2000/svg">
<path d="M24.12 1.66893e-05C23.688 1.82402 23.232 3.79202 22.752 5.90402C22.272 8.01602 21.84 10.08 21.456 12.096C21.072 14.112 20.76 15.96 20.52 17.64H13.68L13.176 16.848C13.608 15.168 14.16 13.368 14.832 11.448C15.504 9.48002 16.248 7.51202 17.064 5.54402C17.88 3.57602 18.672 1.72802 19.44 1.66893e-05H24.12ZM10.8 1.66893e-05C10.368 1.82402 9.91199 3.79202 9.43199 5.90402C8.95199 8.01602 8.51999 10.08 8.13599 12.096C7.75199 14.112 7.43999 15.96 7.19999 17.64H0.431986L-1.36644e-05 16.848C0.431986 15.168 0.983986 13.368 1.65599 11.448C2.32799 9.48002 3.04799 7.51202 3.81599 5.54402C4.63199 3.57602 5.42399 1.72802 6.19199 1.66893e-05H10.8Z" fill="black"/>
</svg>
